<svg width="300" height="170" viewBox="0 0 300 170" fill="none" xmlns="http://www.w3.org/2000/svg">
<path d="M148.5 37.5C123.656 19.7414 88.2821 42.865 28.5 79C125 54.5 176.5 50.5 267.5 79C212.153 45.7507 176.945 19.0881 148.5 37.5Z" fill="#E18787"/>
<path d="M59.8014 103.5C120.256 143.602 179.953 141.862 234.5 105.671C211.808 84.284 190.964 82.3652 148.5 85.5C101.881 81.417 82.8664 85.7351 59.8014 103.5Z" fill="#F28A8B"/>
<path d="M28.5 79C82.0114 182.718 213.557 194.086 267.5 79C256.744 89.3079 245.731 98.2199 234.5 105.671C179.953 141.862 120.256 143.602 59.8014 103.5C49.3826 96.5887 38.9413 88.4347 28.5 79Z" fill="#D38281"/>
<path d="M267.5 79C176.5 50.5 125 54.5 28.5 79C38.9413 88.4347 49.3826 96.5887 59.8014 103.5C82.8664 85.7351 101.881 81.417 148.5 85.5C190.964 82.3652 211.808 84.284 234.5 105.671C245.731 98.2199 256.744 89.3079 267.5 79Z" fill="#801817"/>
</svg>
