<svg width="300" height="170" viewBox="0 0 300 170" fill="none" xmlns="http://www.w3.org/2000/svg">
<path d="M150.83 20.6146C122.048 -1.69443 79.7048 36.4285 17.9889 63.2558C120.771 41.5338 178.643 41.9134 282.288 63.2558C219.692 29.3124 175.014 0.166763 150.83 20.6146Z" fill="#E18787"/>
<path d="M150.83 56.4784C104.971 48.6742 90.0117 63.2489 66.6974 95.1813C126.954 128.599 173.988 127.872 235.24 93.7047C207.355 58.6336 189.082 49.6336 150.83 56.4784Z" fill="#F28A8B"/>
<path d="M17.9889 63.2558C104.248 197.647 215.249 178.393 282.288 63.2558C265.528 75.3335 249.973 85.4865 235.24 93.7047C173.988 127.872 126.954 128.599 66.6974 95.1813C51.4553 86.728 35.3672 76.09 17.9889 63.2558Z" fill="#D38281"/>
<path d="M282.288 63.2558C178.643 41.9134 120.771 41.5338 17.9889 63.2558C35.3672 76.09 51.4553 86.728 66.6974 95.1813C90.0117 63.2489 104.971 48.6742 150.83 56.4784C189.082 49.6336 207.355 58.6336 235.24 93.7047C249.973 85.4865 265.528 75.3335 282.288 63.2558Z" fill="#801817"/>
</svg>
