<svg width="300" height="170" viewBox="0 0 300 170" fill="none" xmlns="http://www.w3.org/2000/svg">
<path d="M149 38.4995C130.39 22.907 108.534 50.4044 87 77.4995C95.6025 79.3391 99.6263 79.7354 105 79C114.263 77.8372 126.028 56.1862 149 58.5C171.42 57.383 176.944 70.7771 193.5 79L212 77.5C212 77.5 170 18 149 38.4995Z" fill="#E18787"/>
<path d="M105 79C99.6263 79.7354 95.6025 79.3391 87 77.4995C125.5 151 175 146.5 212 77.5L193.5 79C176 83.5 169.585 107.166 149 105C132.648 109.077 121 83.5 105 79Z" fill="#D38281"/>
<path d="M149 58.5C126.028 56.1862 114.263 77.8372 105 79C121 83.5 132.648 109.077 149 105C169.585 107.166 176 83.5 193.5 79C176.944 70.7771 171.42 57.383 149 58.5Z" fill="#801817"/>
</svg>
