<svg width="481" height="255" viewBox="0 0 481 255" fill="none" xmlns="http://www.w3.org/2000/svg">
<path d="M109 69L159 64.5H211H349L471.5 88H480L345 18L291 1H261L240.5 11.5L220.5 1H185L144.5 16.5L1 88H11L38.5 82.6684L109 69Z" fill="#D38281"/>
<path d="M240.5 187.5L174.5 179L156 171.305L118 155.5L90.75 140L63.5 124.5L33.5 107.5L11 88H1C37.6637 137.88 51 161 102.5 201C144.5 230 184.316 250.366 240.5 254.5L281 251C299.028 248.35 307.206 246.181 319.5 241.5L357.5 222L391 197C412.59 177.691 424.097 166.673 443 146.5C457.066 126.445 465.211 113.32 480 88H471.5L425 124.5L398.75 142L372.5 159.5L338.5 173.5L309 179L274.5 187.5H240.5Z" fill="#D38281"/>
<path d="M174.5 179L240.5 187.5H274.5L309 179L338.5 173.5L372.5 159.5L398.75 142L357.5 99.5L333 82.6684L309 75.5L271 70.5L240.5 75.5L191 70.5L159 80L124 99.5L90.75 140L118 155.5L156 171.305L174.5 179Z" fill="#F28A8B"/>
<path d="M159 64.5L109 69L38.5 82.6684L11 88L33.5 107.5L63.5 124.5L90.75 140L124 99.5L159 80L191 70.5L240.5 75.5L271 70.5L309 75.5L333 82.6684L357.5 99.5L398.75 142L425 124.5L471.5 88L349 64.5H211H159Z" fill="#801817"/>
<path d="M11 88L38.5 82.6684L109 69L159 64.5H211H349L471.5 88M11 88L33.5 107.5L63.5 124.5L90.75 140M11 88H1M471.5 88L425 124.5L398.75 142M471.5 88H480M1 88L144.5 16.5L185 1H220.5L240.5 11.5L261 1H291L345 18L480 88M1 88C37.6637 137.88 51 161 102.5 201C144.5 230 184.316 250.366 240.5 254.5L281 251C299.028 248.35 307.206 246.181 319.5 241.5L357.5 222L391 197C412.59 177.691 424.097 166.673 443 146.5C457.066 126.445 465.211 113.32 480 88M90.75 140L118 155.5L156 171.305L174.5 179L240.5 187.5H274.5L309 179L338.5 173.5L372.5 159.5L398.75 142M90.75 140L124 99.5L159 80L191 70.5L240.5 75.5L271 70.5L309 75.5L333 82.6684L357.5 99.5L398.75 142" stroke="black"/>
</svg>