<svg width="479" height="254" viewBox="0 0 479 254" fill="none" xmlns="http://www.w3.org/2000/svg">
<path d="M108 72L158 67.5H210H348L470.5 91H479L344 21L290 4H260L239.5 14.5L219.5 4H184L143.5 19.5L0 91H10L37.5 85.6684L108 72Z" fill="#D38281"/>
<path d="M108 72L158 67.5H210H348L470.5 91H479L344 21L290 4H260L239.5 14.5L219.5 4H184L143.5 19.5L0 91H10L37.5 85.6684L108 72Z" stroke="black"/>
<path d="M239.5 186.604L173.5 178.18L155 170.555L117 154.892L89.75 139.532L62.5 124.171L32.5 107.324L10 88H0C36.6637 137.431 50 160.342 101.5 199.982C143.5 228.721 183.316 248.904 239.5 253L280 249.532C298.028 246.906 306.206 244.756 318.5 240.117L356.5 220.793L390 196.018C411.59 176.883 423.097 165.965 442 145.973C456.066 126.099 464.211 113.092 479 88H470.5L424 124.171L397.75 141.514L371.5 158.856L337.5 172.73L308 178.18L273.5 186.604H239.5Z" fill="#D38281"/>
<path d="M239.5 186.604L173.5 178.18L155 170.555L117 154.892L89.75 139.532L62.5 124.171L32.5 107.324L10 88H0C36.6637 137.431 50 160.342 101.5 199.982C143.5 228.721 183.316 248.904 239.5 253L280 249.532C298.028 246.906 306.206 244.756 318.5 240.117L356.5 220.793L390 196.018C411.59 176.883 423.097 165.965 442 145.973C456.066 126.099 464.211 113.092 479 88H470.5L424 124.171L397.75 141.514L371.5 158.856L337.5 172.73L308 178.18L273.5 186.604H239.5Z" stroke="black"/>
<path d="M173.75 179.5L239.75 188H273.75L308.25 179.5L337.75 174L371.75 160L398 142.5L356.75 100L332.25 83.1684L308.25 76L270.25 71L239.75 76L190.25 71L158.25 80.5L123.25 100L90 140.5L117.25 156L155.25 171.805L173.75 179.5Z" fill="#F28A8B"/>
<path d="M173.75 179.5L239.75 188H273.75L308.25 179.5L337.75 174L371.75 160L398 142.5L356.75 100L332.25 83.1684L308.25 76L270.25 71L239.75 76L190.25 71L158.25 80.5L123.25 100L90 140.5L117.25 156L155.25 171.805L173.75 179.5Z" stroke="black"/>
<path d="M157 66L107 70.5L36.5 84.1684L9 89.5L31.5 109L61.5 126L88.75 141.5L122 101L157 81.5L189 72L238.5 77L269 72L307 77L331 84.1684L355.5 101L396.75 143.5L423 126L469.5 89.5L347 66H209H157Z" fill="#801817"/>
<path d="M157 66L107 70.5L36.5 84.1684L9 89.5L31.5 109L61.5 126L88.75 141.5L122 101L157 81.5L189 72L238.5 77L269 72L307 77L331 84.1684L355.5 101L396.75 143.5L423 126L469.5 89.5L347 66H209H157Z" stroke="black"/>
</svg>
